<mxfile host="Electron" agent="Mozilla/5.0 (Windows NT 10.0; Win64; x64) AppleWebKit/537.36 (KHTML, like Gecko) draw.io/24.7.17 Chrome/128.0.6613.36 Electron/32.0.1 Safari/537.36" version="24.7.17">
  <diagram name="Page-1" id="c37626ed-c26b-45fb-9056-f9ebc6bb27b6">
    <mxGraphModel dx="1876" dy="988" grid="1" gridSize="10" guides="1" tooltips="1" connect="1" arrows="1" fold="1" page="1" pageScale="1" pageWidth="1100" pageHeight="850" background="none" math="0" shadow="0">
      <root>
        <mxCell id="0" />
        <mxCell id="1" parent="0" />
        <mxCell id="1c7a67bf8fd3230f-37" style="edgeStyle=none;html=1;labelBackgroundColor=none;startFill=0;endArrow=none;endFill=0;strokeWidth=2;fontFamily=Verdana;fontSize=12;" parent="1" source="1c7a67bf8fd3230f-1" target="1c7a67bf8fd3230f-5" edge="1">
          <mxGeometry relative="1" as="geometry" />
        </mxCell>
        <mxCell id="1c7a67bf8fd3230f-1" value="Spine-1" style="shape=mxgraph.cisco.misc.route_switch_processor;html=1;dashed=0;fillColor=#036897;strokeColor=#ffffff;strokeWidth=2;verticalLabelPosition=bottom;verticalAlign=top;rounded=0;shadow=0;comic=0;fontFamily=Verdana;fontSize=12;" parent="1" vertex="1">
          <mxGeometry x="683" y="260" width="64" height="86" as="geometry" />
        </mxCell>
        <mxCell id="1c7a67bf8fd3230f-38" style="edgeStyle=none;html=1;labelBackgroundColor=none;startFill=0;endArrow=none;endFill=0;strokeWidth=2;fontFamily=Verdana;fontSize=12;" parent="1" source="1c7a67bf8fd3230f-2" target="1c7a67bf8fd3230f-5" edge="1">
          <mxGeometry relative="1" as="geometry" />
        </mxCell>
        <mxCell id="1c7a67bf8fd3230f-2" value="Spine-2" style="shape=mxgraph.cisco.misc.route_switch_processor;html=1;dashed=0;fillColor=#036897;strokeColor=#ffffff;strokeWidth=2;verticalLabelPosition=bottom;verticalAlign=top;rounded=0;shadow=0;comic=0;fontFamily=Verdana;fontSize=12;" parent="1" vertex="1">
          <mxGeometry x="1066" y="270" width="64" height="86" as="geometry" />
        </mxCell>
        <mxCell id="1c7a67bf8fd3230f-39" style="edgeStyle=none;html=1;labelBackgroundColor=none;startFill=0;endArrow=none;endFill=0;strokeWidth=2;fontFamily=Verdana;fontSize=12;" parent="1" source="1c7a67bf8fd3230f-3" target="1c7a67bf8fd3230f-1" edge="1">
          <mxGeometry relative="1" as="geometry" />
        </mxCell>
        <mxCell id="1c7a67bf8fd3230f-3" value="Leaf-2" style="shape=mxgraph.cisco.misc.route_switch_processor;html=1;dashed=0;fillColor=#036897;strokeColor=#ffffff;strokeWidth=2;verticalLabelPosition=bottom;verticalAlign=top;rounded=0;shadow=0;comic=0;fontFamily=Verdana;fontSize=12;" parent="1" vertex="1">
          <mxGeometry x="860" y="540" width="64" height="86" as="geometry" />
        </mxCell>
        <mxCell id="1c7a67bf8fd3230f-40" style="edgeStyle=none;html=1;labelBackgroundColor=none;startFill=0;endArrow=none;endFill=0;strokeWidth=2;fontFamily=Verdana;fontSize=12;exitX=0.609;exitY=0.733;exitDx=0;exitDy=0;exitPerimeter=0;" parent="1" source="1c7a67bf8fd3230f-4" target="1c7a67bf8fd3230f-1" edge="1">
          <mxGeometry relative="1" as="geometry" />
        </mxCell>
        <mxCell id="1c7a67bf8fd3230f-4" value="Leaf-3" style="shape=mxgraph.cisco.misc.route_switch_processor;html=1;dashed=0;fillColor=#036897;strokeColor=#ffffff;strokeWidth=2;verticalLabelPosition=bottom;verticalAlign=top;rounded=0;shadow=0;comic=0;fontFamily=Verdana;fontSize=12;" parent="1" vertex="1">
          <mxGeometry x="1200" y="540" width="64" height="86" as="geometry" />
        </mxCell>
        <mxCell id="1c7a67bf8fd3230f-41" style="edgeStyle=none;html=1;labelBackgroundColor=none;startFill=0;endArrow=none;endFill=0;strokeWidth=2;fontFamily=Verdana;fontSize=12;exitX=0.266;exitY=0.953;exitDx=0;exitDy=0;exitPerimeter=0;" parent="1" source="1c7a67bf8fd3230f-2" target="1c7a67bf8fd3230f-3" edge="1">
          <mxGeometry relative="1" as="geometry">
            <mxPoint x="940" y="540" as="targetPoint" />
          </mxGeometry>
        </mxCell>
        <mxCell id="1c7a67bf8fd3230f-5" value="Leaf-1" style="shape=mxgraph.cisco.misc.route_switch_processor;html=1;dashed=0;fillColor=#036897;strokeColor=#ffffff;strokeWidth=2;verticalLabelPosition=bottom;verticalAlign=top;rounded=0;shadow=0;comic=0;fontFamily=Verdana;fontSize=12;" parent="1" vertex="1">
          <mxGeometry x="580" y="540" width="64" height="86" as="geometry" />
        </mxCell>
        <mxCell id="1c7a67bf8fd3230f-42" style="edgeStyle=none;html=1;labelBackgroundColor=none;startFill=0;endArrow=none;endFill=0;strokeWidth=2;fontFamily=Verdana;fontSize=12;exitX=0.5;exitY=1;exitDx=0;exitDy=0;exitPerimeter=0;" parent="1" source="1c7a67bf8fd3230f-2" target="1c7a67bf8fd3230f-4" edge="1">
          <mxGeometry relative="1" as="geometry">
            <mxPoint x="1372" y="519" as="targetPoint" />
          </mxGeometry>
        </mxCell>
        <mxCell id="ajIyB0o3xUS5sGVv7tBJ-5" value="Srv-1&lt;div&gt;&lt;span style=&quot;text-wrap: wrap;&quot;&gt;172.20.8.1&lt;/span&gt;&lt;br&gt;&lt;/div&gt;" style="shape=mxgraph.cisco.servers.fileserver;sketch=0;html=1;pointerEvents=1;dashed=0;fillColor=#036897;strokeColor=#ffffff;strokeWidth=2;verticalLabelPosition=bottom;verticalAlign=top;align=center;outlineConnect=0;" vertex="1" parent="1">
          <mxGeometry x="590.5" y="710" width="43" height="62" as="geometry" />
        </mxCell>
        <mxCell id="ajIyB0o3xUS5sGVv7tBJ-7" style="edgeStyle=none;html=1;labelBackgroundColor=none;startFill=0;endArrow=none;endFill=0;strokeWidth=2;fontFamily=Verdana;fontSize=12;exitX=0.5;exitY=1;exitDx=0;exitDy=0;exitPerimeter=0;entryX=0.5;entryY=0;entryDx=0;entryDy=0;entryPerimeter=0;" edge="1" parent="1" source="1c7a67bf8fd3230f-5" target="ajIyB0o3xUS5sGVv7tBJ-5">
          <mxGeometry relative="1" as="geometry">
            <mxPoint x="1036" y="360" as="sourcePoint" />
            <mxPoint x="620" y="750" as="targetPoint" />
          </mxGeometry>
        </mxCell>
        <mxCell id="ajIyB0o3xUS5sGVv7tBJ-13" value="" style="rounded=1;orthogonalLoop=1;jettySize=auto;html=1;strokeWidth=2;curved=0;endArrow=none;endFill=0;" edge="1" parent="1" source="ajIyB0o3xUS5sGVv7tBJ-12" target="1c7a67bf8fd3230f-3">
          <mxGeometry relative="1" as="geometry" />
        </mxCell>
        <mxCell id="ajIyB0o3xUS5sGVv7tBJ-12" value="Srv-2&lt;div&gt;&lt;span style=&quot;text-wrap: wrap;&quot;&gt;172.20.10.2&lt;/span&gt;&lt;br&gt;&lt;/div&gt;" style="shape=mxgraph.cisco.servers.fileserver;sketch=0;html=1;pointerEvents=1;dashed=0;fillColor=#036897;strokeColor=#ffffff;strokeWidth=2;verticalLabelPosition=bottom;verticalAlign=top;align=center;outlineConnect=0;" vertex="1" parent="1">
          <mxGeometry x="870.5" y="700" width="43" height="62" as="geometry" />
        </mxCell>
        <mxCell id="ajIyB0o3xUS5sGVv7tBJ-14" value="Srv-3&lt;div&gt;&lt;span style=&quot;text-wrap: wrap;&quot;&gt;172.20.10.1&lt;/span&gt;&lt;br&gt;&lt;/div&gt;" style="shape=mxgraph.cisco.servers.fileserver;sketch=0;html=1;pointerEvents=1;dashed=0;fillColor=#036897;strokeColor=#ffffff;strokeWidth=2;verticalLabelPosition=bottom;verticalAlign=top;align=center;outlineConnect=0;" vertex="1" parent="1">
          <mxGeometry x="1100" y="690" width="43" height="62" as="geometry" />
        </mxCell>
        <mxCell id="ajIyB0o3xUS5sGVv7tBJ-15" value="Srv-4&lt;div&gt;&lt;span style=&quot;text-wrap: wrap;&quot;&gt;172.20.11.2&lt;/span&gt;&lt;br&gt;&lt;/div&gt;" style="shape=mxgraph.cisco.servers.fileserver;sketch=0;html=1;pointerEvents=1;dashed=0;fillColor=#036897;strokeColor=#ffffff;strokeWidth=2;verticalLabelPosition=bottom;verticalAlign=top;align=center;outlineConnect=0;" vertex="1" parent="1">
          <mxGeometry x="1280" y="690" width="43" height="62" as="geometry" />
        </mxCell>
        <mxCell id="ajIyB0o3xUS5sGVv7tBJ-18" value="" style="endArrow=none;html=1;rounded=0;strokeWidth=2;" edge="1" parent="1" source="1c7a67bf8fd3230f-4" target="ajIyB0o3xUS5sGVv7tBJ-15">
          <mxGeometry width="50" height="50" relative="1" as="geometry">
            <mxPoint x="1240" y="608" as="sourcePoint" />
            <mxPoint x="1290" y="558" as="targetPoint" />
          </mxGeometry>
        </mxCell>
        <mxCell id="ajIyB0o3xUS5sGVv7tBJ-19" value="" style="endArrow=none;html=1;rounded=0;strokeWidth=2;" edge="1" parent="1" source="ajIyB0o3xUS5sGVv7tBJ-14" target="1c7a67bf8fd3230f-4">
          <mxGeometry width="50" height="50" relative="1" as="geometry">
            <mxPoint x="1130" y="700" as="sourcePoint" />
            <mxPoint x="1180" y="650" as="targetPoint" />
          </mxGeometry>
        </mxCell>
        <mxCell id="ajIyB0o3xUS5sGVv7tBJ-22" value="vlan 8&lt;div&gt;172.20.8.0/24&lt;/div&gt;" style="text;html=1;align=center;verticalAlign=middle;whiteSpace=wrap;rounded=0;" vertex="1" parent="1">
          <mxGeometry x="633.5" y="650" width="60" height="30" as="geometry" />
        </mxCell>
        <mxCell id="ajIyB0o3xUS5sGVv7tBJ-23" value="vlan 10&lt;div&gt;172.20.10.0/24&lt;/div&gt;" style="text;html=1;align=center;verticalAlign=middle;whiteSpace=wrap;rounded=0;" vertex="1" parent="1">
          <mxGeometry x="913.5" y="650" width="60" height="30" as="geometry" />
        </mxCell>
        <mxCell id="ajIyB0o3xUS5sGVv7tBJ-24" value="vlan 10&lt;div&gt;172.20.10.0/24&lt;/div&gt;" style="text;html=1;align=center;verticalAlign=middle;whiteSpace=wrap;rounded=0;" vertex="1" parent="1">
          <mxGeometry x="1070" y="650" width="60" height="30" as="geometry" />
        </mxCell>
        <mxCell id="ajIyB0o3xUS5sGVv7tBJ-25" value="vlan 11&lt;div&gt;172.20.11.0/24&lt;/div&gt;" style="text;html=1;align=center;verticalAlign=middle;whiteSpace=wrap;rounded=0;" vertex="1" parent="1">
          <mxGeometry x="1300" y="650" width="60" height="30" as="geometry" />
        </mxCell>
        <mxCell id="ajIyB0o3xUS5sGVv7tBJ-26" value="loopback1:&lt;span style=&quot;background-color: initial;&quot;&gt;172.16.1.1&lt;/span&gt;&lt;div&gt;loopback2: 172.17.1.1&lt;br&gt;&lt;span style=&quot;color: rgb(0, 0, 0); font-family: Helvetica; font-size: 12px; font-style: normal; font-variant-ligatures: normal; font-variant-caps: normal; font-weight: 400; letter-spacing: normal; orphans: 2; text-align: center; text-indent: 0px; text-transform: none; widows: 2; word-spacing: 0px; -webkit-text-stroke-width: 0px; white-space: normal; background-color: rgb(251, 251, 251); text-decoration-thickness: initial; text-decoration-style: initial; text-decoration-color: initial; display: inline !important; float: none;&quot;&gt;Vlan8: 172.20.8.254&lt;/span&gt;&lt;br&gt;&lt;br&gt;&lt;/div&gt;" style="text;html=1;align=center;verticalAlign=middle;whiteSpace=wrap;rounded=0;" vertex="1" parent="1">
          <mxGeometry x="650" y="561" width="130" height="30" as="geometry" />
        </mxCell>
        <mxCell id="ajIyB0o3xUS5sGVv7tBJ-27" value="loopback1:&lt;span style=&quot;background-color: initial;&quot;&gt;172.16.1.2&lt;/span&gt;&lt;div&gt;loopback2: 172.17.1.2&lt;br&gt;&lt;span style=&quot;color: rgb(0, 0, 0); font-family: Helvetica; font-size: 12px; font-style: normal; font-variant-ligatures: normal; font-variant-caps: normal; font-weight: 400; letter-spacing: normal; orphans: 2; text-align: center; text-indent: 0px; text-transform: none; widows: 2; word-spacing: 0px; -webkit-text-stroke-width: 0px; white-space: normal; background-color: rgb(251, 251, 251); text-decoration-thickness: initial; text-decoration-style: initial; text-decoration-color: initial; display: inline !important; float: none;&quot;&gt;Vlan10: 172.20.10.254&lt;/span&gt;&lt;br&gt;&lt;br&gt;&lt;/div&gt;" style="text;html=1;align=center;verticalAlign=middle;whiteSpace=wrap;rounded=0;" vertex="1" parent="1">
          <mxGeometry x="913.5" y="561" width="144" height="30" as="geometry" />
        </mxCell>
        <mxCell id="ajIyB0o3xUS5sGVv7tBJ-28" value="loopback1:&lt;span style=&quot;background-color: initial;&quot;&gt;172.16.1.2&lt;/span&gt;&lt;div&gt;loopback2: 172.17.1.2&lt;br&gt;&lt;span style=&quot;color: rgb(0, 0, 0); font-family: Helvetica; font-size: 12px; font-style: normal; font-variant-ligatures: normal; font-variant-caps: normal; font-weight: 400; letter-spacing: normal; orphans: 2; text-align: center; text-indent: 0px; text-transform: none; widows: 2; word-spacing: 0px; -webkit-text-stroke-width: 0px; white-space: normal; background-color: rgb(251, 251, 251); text-decoration-thickness: initial; text-decoration-style: initial; text-decoration-color: initial; display: inline !important; float: none;&quot;&gt;Vlan10: 172.20.10.254&lt;/span&gt;&lt;/div&gt;&lt;div&gt;Vlan11: 172.20.11.254&lt;br&gt;&lt;br&gt;&lt;/div&gt;" style="text;html=1;align=center;verticalAlign=middle;whiteSpace=wrap;rounded=0;" vertex="1" parent="1">
          <mxGeometry x="1258" y="560" width="144" height="30" as="geometry" />
        </mxCell>
        <mxCell id="ajIyB0o3xUS5sGVv7tBJ-29" value="loopback1:&lt;span style=&quot;background-color: initial;&quot;&gt;172.16.0.1&lt;/span&gt;" style="text;html=1;align=center;verticalAlign=middle;whiteSpace=wrap;rounded=0;" vertex="1" parent="1">
          <mxGeometry x="760" y="298" width="130" height="30" as="geometry" />
        </mxCell>
        <mxCell id="ajIyB0o3xUS5sGVv7tBJ-30" value="loopback1:&lt;span style=&quot;background-color: initial;&quot;&gt;172.16.0.2&lt;/span&gt;" style="text;html=1;align=center;verticalAlign=middle;whiteSpace=wrap;rounded=0;" vertex="1" parent="1">
          <mxGeometry x="1134" y="298" width="130" height="30" as="geometry" />
        </mxCell>
      </root>
    </mxGraphModel>
  </diagram>
</mxfile>
